<svg width="100" height="100" viewBox="0 0 100 100" fill="none" xmlns="http://www.w3.org/2000/svg">
<rect width="100" height="100" rx="50" transform="matrix(-1 0 0 1 100 0)" fill="#5D50C6"/>
<path d="M55.5858 49H42C41.4477 49 41 49.4478 41 50C41 50.5523 41.4477 51 42 51H55.5858L52.3431 54.2427C51.9526 54.6332 51.9526 55.2664 52.3431 55.6569C52.7337 56.0474 53.3668 56.0474 53.7574 55.6569L58 51.4143C58.781 50.6332 58.781 49.3669 58 48.5858L53.7574 44.3432C53.3668 43.9527 52.7337 43.9527 52.3431 44.3432C51.9526 44.7337 51.9526 45.3669 52.3431 45.7574L55.5858 49Z" fill="white"/>
</svg>
