<svg width="224" height="32" viewBox="0 0 224 32" fill="none" xmlns="http://www.w3.org/2000/svg">
<path d="M23.8912 19.0935C23.5459 19.4281 23.3872 19.9121 23.4659 20.3868L24.6512 26.9468C24.7512 27.5028 24.5165 28.0655 24.0512 28.3868C23.5952 28.7201 22.9885 28.7601 22.4912 28.4935L16.5859 25.4135C16.3805 25.3041 16.1525 25.2455 15.9192 25.2388H15.5579C15.4325 25.2575 15.3099 25.2975 15.1979 25.3588L9.29118 28.4535C8.99918 28.6001 8.66852 28.6521 8.34452 28.6001C7.55518 28.4508 7.02852 27.6988 7.15785 26.9055L8.34452 20.3455C8.42318 19.8668 8.26452 19.3801 7.91918 19.0401L3.10452 14.3735C2.70185 13.9828 2.56185 13.3961 2.74585 12.8668C2.92452 12.3388 3.38052 11.9535 3.93118 11.8668L10.5579 10.9055C11.0619 10.8535 11.5045 10.5468 11.7312 10.0935L14.6512 4.10683C14.7205 3.9735 14.8099 3.85083 14.9179 3.74683L15.0379 3.6535C15.1005 3.58416 15.1725 3.52683 15.2525 3.48016L15.3979 3.42683L15.6245 3.3335H16.1859C16.6872 3.3855 17.1285 3.6855 17.3592 4.1335L20.3179 10.0935C20.5312 10.5295 20.9459 10.8322 21.4245 10.9055L28.0512 11.8668C28.6112 11.9468 29.0792 12.3335 29.2645 12.8668C29.4392 13.4015 29.2885 13.9881 28.8779 14.3735L23.8912 19.0935Z" fill="#FACD49"/>
<path d="M71.8912 19.0935C71.5459 19.4281 71.3872 19.9121 71.4659 20.3868L72.6512 26.9468C72.7512 27.5028 72.5165 28.0655 72.0512 28.3868C71.5952 28.7201 70.9885 28.7601 70.4912 28.4935L64.5859 25.4135C64.3805 25.3041 64.1525 25.2455 63.9192 25.2388H63.5579C63.4325 25.2575 63.3099 25.2975 63.1979 25.3588L57.2912 28.4535C56.9992 28.6001 56.6685 28.6521 56.3445 28.6001C55.5552 28.4508 55.0285 27.6988 55.1579 26.9055L56.3445 20.3455C56.4232 19.8668 56.2645 19.3801 55.9192 19.0401L51.1045 14.3735C50.7018 13.9828 50.5619 13.3961 50.7459 12.8668C50.9245 12.3388 51.3805 11.9535 51.9312 11.8668L58.5579 10.9055C59.0619 10.8535 59.5045 10.5468 59.7312 10.0935L62.6512 4.10683C62.7205 3.9735 62.8099 3.85083 62.9179 3.74683L63.0379 3.6535C63.1005 3.58416 63.1725 3.52683 63.2525 3.48016L63.3979 3.42683L63.6245 3.3335H64.1859C64.6872 3.3855 65.1285 3.6855 65.3592 4.1335L68.3179 10.0935C68.5312 10.5295 68.9459 10.8322 69.4245 10.9055L76.0512 11.8668C76.6112 11.9468 77.0792 12.3335 77.2645 12.8668C77.4392 13.4015 77.2885 13.9881 76.8779 14.3735L71.8912 19.0935Z" fill="#FACD49"/>
<path d="M119.891 19.0935C119.546 19.4281 119.387 19.9121 119.466 20.3868L120.651 26.9468C120.751 27.5028 120.517 28.0655 120.051 28.3868C119.595 28.7201 118.989 28.7601 118.491 28.4935L112.586 25.4135C112.381 25.3041 112.153 25.2455 111.919 25.2388H111.558C111.433 25.2575 111.31 25.2975 111.198 25.3588L105.291 28.4535C104.999 28.6001 104.669 28.6521 104.345 28.6001C103.555 28.4508 103.029 27.6988 103.158 26.9055L104.345 20.3455C104.423 19.8668 104.265 19.3801 103.919 19.0401L99.1045 14.3735C98.7018 13.9828 98.5619 13.3961 98.7459 12.8668C98.9245 12.3388 99.3805 11.9535 99.9312 11.8668L106.558 10.9055C107.062 10.8535 107.505 10.5468 107.731 10.0935L110.651 4.10683C110.721 3.9735 110.81 3.85083 110.918 3.74683L111.038 3.6535C111.101 3.58416 111.173 3.52683 111.253 3.48016L111.398 3.42683L111.625 3.3335H112.186C112.687 3.3855 113.129 3.6855 113.359 4.1335L116.318 10.0935C116.531 10.5295 116.946 10.8322 117.425 10.9055L124.051 11.8668C124.611 11.9468 125.079 12.3335 125.265 12.8668C125.439 13.4015 125.289 13.9881 124.878 14.3735L119.891 19.0935Z" fill="#FACD49"/>
<path d="M167.891 19.0935C167.546 19.4281 167.387 19.9121 167.466 20.3868L168.651 26.9468C168.751 27.5028 168.517 28.0655 168.051 28.3868C167.595 28.7201 166.989 28.7601 166.491 28.4935L160.586 25.4135C160.381 25.3041 160.153 25.2455 159.919 25.2388H159.558C159.433 25.2575 159.31 25.2975 159.198 25.3588L153.291 28.4535C152.999 28.6001 152.669 28.6521 152.345 28.6001C151.555 28.4508 151.029 27.6988 151.158 26.9055L152.345 20.3455C152.423 19.8668 152.265 19.3801 151.919 19.0401L147.105 14.3735C146.702 13.9828 146.562 13.3961 146.746 12.8668C146.925 12.3388 147.381 11.9535 147.931 11.8668L154.558 10.9055C155.062 10.8535 155.505 10.5468 155.731 10.0935L158.651 4.10683C158.721 3.9735 158.81 3.85083 158.918 3.74683L159.038 3.6535C159.101 3.58416 159.173 3.52683 159.253 3.48016L159.398 3.42683L159.625 3.3335H160.186C160.687 3.3855 161.129 3.6855 161.359 4.1335L164.318 10.0935C164.531 10.5295 164.946 10.8322 165.425 10.9055L172.051 11.8668C172.611 11.9468 173.079 12.3335 173.265 12.8668C173.439 13.4015 173.289 13.9881 172.878 14.3735L167.891 19.0935Z" fill="#FACD49"/>
<path d="M215.891 19.0935C215.546 19.4281 215.387 19.9121 215.466 20.3868L216.651 26.9468C216.751 27.5028 216.517 28.0655 216.051 28.3868C215.595 28.7201 214.989 28.7601 214.491 28.4935L208.586 25.4135C208.381 25.3041 208.153 25.2455 207.919 25.2388H207.558C207.433 25.2575 207.31 25.2975 207.198 25.3588L201.291 28.4535C200.999 28.6001 200.669 28.6521 200.345 28.6001C199.555 28.4508 199.029 27.6988 199.158 26.9055L200.345 20.3455C200.423 19.8668 200.265 19.3801 199.919 19.0401L195.105 14.3735C194.702 13.9828 194.562 13.3961 194.746 12.8668C194.925 12.3388 195.381 11.9535 195.931 11.8668L202.558 10.9055C203.062 10.8535 203.505 10.5468 203.731 10.0935L206.651 4.10683C206.721 3.9735 206.81 3.85083 206.918 3.74683L207.038 3.6535C207.101 3.58416 207.173 3.52683 207.253 3.48016L207.398 3.42683L207.625 3.3335H208.186C208.687 3.3855 209.129 3.6855 209.359 4.1335L212.318 10.0935C212.531 10.5295 212.946 10.8322 213.425 10.9055L220.051 11.8668C220.611 11.9468 221.079 12.3335 221.265 12.8668C221.439 13.4015 221.289 13.9881 220.878 14.3735L215.891 19.0935Z" fill="#FACD49"/>
</svg>
