<svg width="100" height="101" viewBox="0 0 100 101" fill="none" xmlns="http://www.w3.org/2000/svg">
<rect y="0.5" width="100" height="100" rx="32" fill="#F85E9F"/>
<path fill-rule="evenodd" clip-rule="evenodd" d="M69.5744 47.578C69.3036 47.8412 68.9362 47.9914 68.5494 47.9914C67.118 47.9914 65.9574 49.119 65.9574 50.4906C65.9574 51.8716 67.1044 52.9934 68.5222 53.0086C69.321 53.016 70 53.5572 70 54.3332V59.153C70 63.2098 66.615 66.5 62.4372 66.5H56.1316C55.4796 66.5 54.9516 65.987 54.9516 65.3538V61.295C54.9516 60.5058 54.3134 59.8858 53.501 59.8858C52.708 59.8858 52.0502 60.5058 52.0502 61.295V65.3538C52.0502 65.987 51.5222 66.5 50.8724 66.5H37.5629C33.4043 66.5 30 63.2116 30 59.153V54.3332C30 53.5572 30.6789 53.016 31.4778 53.0086C32.8975 52.9934 34.0426 51.8716 34.0426 50.4906C34.0426 49.1564 32.9207 48.1418 31.4507 48.1418C31.0638 48.1418 30.6963 47.9914 30.4255 47.7284C30.1547 47.4654 30 47.1084 30 46.7326V41.8658C30 37.8146 33.412 34.5 37.5822 34.5H50.8724C51.5222 34.5 52.0502 35.013 52.0502 35.6462V40.4565C52.0502 41.227 52.708 41.8658 53.501 41.8658C54.3134 41.8658 54.9516 41.227 54.9516 40.4565V35.6462C54.9516 35.013 55.4796 34.5 56.1316 34.5H62.4372C66.615 34.5 70 37.7883 70 41.847V46.5822C70 46.958 69.8452 47.315 69.5744 47.578ZM53.501 56.2404C54.3134 56.2404 54.9516 55.6016 54.9516 54.8312V47.315C54.9516 46.5446 54.3134 45.9058 53.501 45.9058C52.708 45.9058 52.0502 46.5446 52.0502 47.315V54.8312C52.0502 55.6016 52.708 56.2404 53.501 56.2404Z" fill="white"/>
</svg>
