<svg width="154" height="41" viewBox="0 0 154 41" fill="none" xmlns="http://www.w3.org/2000/svg">
<path fill-rule="evenodd" clip-rule="evenodd" d="M8.55273 4.09787C7.12207 5.09823 5.82837 6.28098 4.70532 7.6124C9.29462 7.18633 15.1252 7.88204 21.8944 11.2667C29.123 14.8809 34.9438 15.0031 38.9948 14.2217C38.6272 13.1088 38.1644 12.0392 37.6163 11.0224C32.979 11.5115 27.034 10.8641 20.1056 7.39998C15.706 5.20018 11.8278 4.29401 8.55273 4.09787ZM34.9074 7.16665C31.2453 3.075 25.9234 0.5 20 0.5C18.2605 0.5 16.5727 0.722107 14.9637 1.13948C17.1429 1.73409 19.4579 2.60399 21.8944 3.82227C26.967 6.35853 31.3464 7.17516 34.9074 7.16665ZM39.8609 18.1281C34.9669 19.0945 28.2088 18.896 20.1056 14.8444C12.53 11.0566 6.50043 11.1043 2.4339 12.008C2.224 12.0546 2.01904 12.1036 1.81903 12.1546C1.28662 13.3125 0.861634 14.5301 0.556702 15.7945C0.882386 15.7075 1.21893 15.6248 1.56616 15.5476C6.49957 14.4513 13.4701 14.4989 21.8944 18.7111C29.4701 22.4989 35.4996 22.4512 39.5662 21.5475C39.7055 21.5166 39.8428 21.4846 39.9778 21.4516C39.9926 21.1363 40 20.819 40 20.5C40 19.6975 39.9528 18.906 39.8609 18.1281ZM39.3248 25.6723C34.4783 26.5196 27.917 26.1944 20.1056 22.2888C12.53 18.501 6.50043 18.5487 2.4339 19.4524C1.53125 19.6529 0.719239 19.8972 0.00293 20.1551C0.000977 20.2698 0 20.3848 0 20.5C0 31.5457 8.95429 40.5 20 40.5C29.2571 40.5 37.0453 34.2109 39.3248 25.6723Z" fill="url(#paint0_linear_832_821)"/>
<path d="M61.016 29.5V17.092H56.096V12.7H71.6V17.092H66.68V29.5H61.016ZM72.6688 29.5V16.372H77.8288V20.332L76.9888 19.204C77.3888 18.18 78.0288 17.412 78.9088 16.9C79.7888 16.388 80.8448 16.132 82.0768 16.132V20.932C81.8368 20.9 81.6208 20.876 81.4288 20.86C81.2528 20.844 81.0688 20.836 80.8768 20.836C80.0608 20.836 79.3888 21.052 78.8608 21.484C78.3488 21.9 78.0928 22.628 78.0928 23.668V29.5H72.6688ZM90.8315 29.5V27.172L90.4475 26.548V22.132C90.4475 21.492 90.2475 21.004 89.8475 20.668C89.4635 20.332 88.8315 20.164 87.9515 20.164C87.3595 20.164 86.7595 20.26 86.1515 20.452C85.5435 20.628 85.0235 20.876 84.5915 21.196L82.8635 17.62C83.6315 17.14 84.5515 16.772 85.6235 16.516C86.6955 16.26 87.7435 16.132 88.7675 16.132C91.0235 16.132 92.7675 16.636 93.9995 17.644C95.2475 18.652 95.8715 20.252 95.8715 22.444V29.5H90.8315ZM87.1115 29.74C86.0395 29.74 85.1435 29.556 84.4235 29.188C83.7035 28.82 83.1595 28.332 82.7915 27.724C82.4235 27.1 82.2395 26.412 82.2395 25.66C82.2395 24.812 82.4555 24.092 82.8875 23.5C83.3195 22.908 83.9755 22.46 84.8555 22.156C85.7515 21.852 86.8795 21.7 88.2395 21.7H90.9755V24.316H89.1035C88.5275 24.316 88.1035 24.412 87.8315 24.604C87.5755 24.78 87.4475 25.052 87.4475 25.42C87.4475 25.724 87.5595 25.98 87.7835 26.188C88.0235 26.38 88.3435 26.476 88.7435 26.476C89.1115 26.476 89.4475 26.38 89.7515 26.188C90.0715 25.98 90.3035 25.66 90.4475 25.228L91.1435 26.836C90.9355 27.812 90.4955 28.54 89.8235 29.02C89.1515 29.5 88.2475 29.74 87.1115 29.74ZM101.701 29.5L96.4212 16.372H101.989L105.997 27.028H103.189L107.461 16.372H112.597L107.317 29.5H101.701ZM113.427 29.5V11.692H118.851V29.5H113.427ZM128.191 29.74C126.703 29.74 125.383 29.452 124.231 28.876C123.095 28.284 122.199 27.476 121.543 26.452C120.887 25.428 120.559 24.252 120.559 22.924C120.559 21.596 120.887 20.42 121.543 19.396C122.199 18.372 123.095 17.572 124.231 16.996C125.383 16.42 126.703 16.132 128.191 16.132C129.679 16.132 130.999 16.42 132.151 16.996C133.303 17.572 134.199 18.372 134.839 19.396C135.495 20.42 135.823 21.596 135.823 22.924C135.823 24.252 135.495 25.428 134.839 26.452C134.199 27.476 133.303 28.284 132.151 28.876C130.999 29.452 129.679 29.74 128.191 29.74ZM128.191 25.516C128.591 25.516 128.951 25.42 129.271 25.228C129.591 25.036 129.847 24.748 130.039 24.364C130.231 23.964 130.327 23.484 130.327 22.924C130.327 22.348 130.231 21.876 130.039 21.508C129.847 21.124 129.591 20.836 129.271 20.644C128.951 20.452 128.591 20.356 128.191 20.356C127.791 20.356 127.431 20.452 127.111 20.644C126.791 20.836 126.535 21.124 126.343 21.508C126.151 21.876 126.055 22.348 126.055 22.924C126.055 23.484 126.151 23.964 126.343 24.364C126.535 24.748 126.791 25.036 127.111 25.228C127.431 25.42 127.791 25.516 128.191 25.516ZM144.192 34.396C142.896 34.396 141.68 34.26 140.544 33.988C139.408 33.716 138.432 33.308 137.616 32.764L139.44 29.068C139.952 29.468 140.6 29.78 141.384 30.004C142.184 30.244 142.936 30.364 143.64 30.364C144.76 30.364 145.56 30.124 146.04 29.644C146.52 29.18 146.76 28.508 146.76 27.628V26.524L147 22.444L147.024 18.364V16.372H152.184V26.884C152.184 29.428 151.48 31.316 150.072 32.548C148.664 33.78 146.704 34.396 144.192 34.396ZM143.136 28.78C142.032 28.78 141 28.524 140.04 28.012C139.08 27.484 138.304 26.748 137.712 25.804C137.12 24.86 136.824 23.74 136.824 22.444C136.824 21.148 137.12 20.028 137.712 19.084C138.304 18.14 139.08 17.412 140.04 16.9C141 16.388 142.032 16.132 143.136 16.132C144.272 16.132 145.2 16.356 145.92 16.804C146.656 17.252 147.2 17.948 147.552 18.892C147.904 19.82 148.08 21.004 148.08 22.444C148.08 23.884 147.904 25.076 147.552 26.02C147.2 26.948 146.656 27.644 145.92 28.108C145.2 28.556 144.272 28.78 143.136 28.78ZM144.576 24.556C145.008 24.556 145.392 24.468 145.728 24.292C146.064 24.116 146.328 23.868 146.52 23.548C146.712 23.228 146.808 22.86 146.808 22.444C146.808 22.012 146.712 21.644 146.52 21.34C146.328 21.02 146.064 20.78 145.728 20.62C145.392 20.444 145.008 20.356 144.576 20.356C144.16 20.356 143.776 20.444 143.424 20.62C143.088 20.78 142.816 21.02 142.608 21.34C142.416 21.644 142.32 22.012 142.32 22.444C142.32 22.86 142.416 23.228 142.608 23.548C142.816 23.868 143.088 24.116 143.424 24.292C143.776 24.468 144.16 24.556 144.576 24.556Z" fill="#191825"/>
<defs>
<linearGradient id="paint0_linear_832_821" x1="36" y1="43.7" x2="-3.73321" y2="36.0931" gradientUnits="userSpaceOnUse">
<stop stop-color="#5D50C6"/>
<stop offset="1" stop-color="#F85E9F"/>
</linearGradient>
</defs>
</svg>
